<svg width="128" height="128" viewBox="0 0 128 128" fill="none" xmlns="http://www.w3.org/2000/svg">
  <g clip-path="url(#clip0_2403_58)">
    <path
      d="M118 0C123.523 0 128 4.47715 128 10V118C128 123.523 123.523 128 118 128H10C4.47715 128 0 123.523 0 118V10C0 4.47715 4.47715 0 10 0H118ZM97.2344 45.2031C91.1146 45.2031 86.8047 47.3255 84.3047 51.5703C81.8307 55.7891 80.5938 60.763 80.5938 66.4922C80.5938 71.9609 81.8307 76.8177 84.3047 81.0625C86.8047 85.2812 91.1146 87.3906 97.2344 87.3906C99.5781 87.3906 101.583 87.0521 103.25 86.375C104.917 85.6979 106.427 84.2396 107.781 82H107.938C107.833 83.0417 107.781 84.0833 107.781 85.125V85.7891C107.781 89.9557 106.896 92.651 105.125 93.875C103.354 95.125 100.802 95.75 97.4688 95.75C95.0469 95.75 93.0417 95.5547 91.4531 95.1641C89.8906 94.7734 88.5755 94.3307 87.5078 93.8359C86.1797 93.2109 85.2292 93.4714 84.6562 94.6172L83.25 97.4297C82.4167 99.0964 82.625 100.229 83.875 100.828C86.2708 101.974 88.6406 102.69 90.9844 102.977C93.3281 103.263 95.8802 103.406 98.6406 103.406C105.151 103.406 110.125 102.195 113.562 99.7734C117 97.3516 118.719 92.9505 118.719 86.5703V48.3281C118.719 46.7656 117.938 45.9844 116.375 45.9844H110.203C108.901 45.9844 108.198 46.7656 108.094 48.3281L107.938 50.5938H107.781C106.427 48.3542 104.917 46.8958 103.25 46.2188C101.583 45.5417 99.5781 45.2031 97.2344 45.2031ZM11.375 30.9844C9.29167 30.9844 8.25 31.9609 8.25 33.9141V84.0703C8.25 86.0234 9.29167 87 11.375 87H26.6094C35.5938 87 42.0391 85.5156 45.9453 82.5469C49.8516 79.5781 51.8047 75.6979 51.8047 70.9062C51.8047 66.8177 50.2031 63.6536 47 61.4141C43.7969 59.1745 41.0104 57.9766 38.6406 57.8203V57.7031C41.0885 57.3906 43.6146 56.2578 46.2188 54.3047C48.849 52.3516 50.1641 49.5911 50.1641 46.0234C50.1641 40.9193 48.4062 37.1432 44.8906 34.6953C41.401 32.2214 34.6562 30.9844 24.6562 30.9844H11.375ZM63.5625 45.9844C62 45.9844 61.2188 46.7656 61.2188 48.3281V84.6562C61.2188 86.2188 62 87 63.5625 87H69.8125C71.375 87 72.1562 86.2188 72.1562 84.6562V48.3281C72.1562 46.7656 71.375 45.9844 69.8125 45.9844H63.5625ZM100.672 52.8594C102.625 52.8594 104.292 53.9661 105.672 56.1797C107.078 58.3672 107.781 61.2188 107.781 64.7344V67.8594C107.781 71.375 107.078 74.2396 105.672 76.4531C104.292 78.6406 102.625 79.7344 100.672 79.7344C97.1562 79.7344 94.8516 78.5104 93.7578 76.0625C92.6901 73.5885 92.1562 70.3984 92.1562 66.4922C92.1562 62.3255 92.6901 59.0182 93.7578 56.5703C94.8516 54.0964 97.1562 52.8594 100.672 52.8594ZM25.3594 62.8594C30.2552 62.8594 33.849 63.3932 36.1406 64.4609C38.4583 65.5026 39.6172 67.4036 39.6172 70.1641C39.6172 73.1068 38.6146 75.0599 36.6094 76.0234C34.6302 76.987 30.8802 77.4688 25.3594 77.4688H19.6562V62.8594H25.3594ZM24.7734 40.5156C30.737 40.5156 34.526 41.0234 36.1406 42.0391C37.7812 43.0286 38.6016 44.487 38.6016 46.4141C38.6016 48.888 37.1302 50.7109 34.1875 51.8828C31.2708 53.0547 28.1328 53.6406 24.7734 53.6406H19.6562V40.5156H24.7734ZM63.5625 30.2812C62 30.2812 61.2188 31.0625 61.2188 32.625V37.625C61.2188 39.1875 62 39.9688 63.5625 39.9688H69.8125C71.375 39.9688 72.1562 39.1875 72.1562 37.625V32.625C72.1562 31.0625 71.375 30.2812 69.8125 30.2812H63.5625Z"
      fill="currentcolor"
    />
  </g>
  <defs>
    <clipPath id="clip0_2403_58">
      <rect width="128" height="128" fill="white" />
    </clipPath>
  </defs>
</svg>
